<?xml version="1.0" encoding="UTF-8" standalone="no"?>
<svg
   xmlns:dc="http://purl.org/dc/elements/1.1/"
   xmlns:cc="http://creativecommons.org/ns#"
   xmlns:rdf="http://www.w3.org/1999/02/22-rdf-syntax-ns#"
   xmlns:svg="http://www.w3.org/2000/svg"
   xmlns="http://www.w3.org/2000/svg"
   xmlns:sodipodi="http://sodipodi.sourceforge.net/DTD/sodipodi-0.dtd"
   xmlns:inkscape="http://www.inkscape.org/namespaces/inkscape"
   aria-hidden="true"
   focusable="false"
   data-prefix="fas"
   data-icon="layer-group"
   class="svg-inline--fa fa-layer-group fa-w-16"
   role="img"
   viewBox="0 0 512 512"
   version="1.1"
   id="svg4"
   sodipodi:docname="favicon.svg"
   inkscape:version="1.0.1 (0767f8302a, 2020-10-17)"
   inkscape:export-filename="/home/mx/projects/stm/design/logo/logo-color.png"
   inkscape:export-xdpi="96"
   inkscape:export-ydpi="96">
  <metadata
     id="metadata10">
    <rdf:RDF>
      <cc:Work
         rdf:about="">
        <dc:format>image/svg+xml</dc:format>
        <dc:type
           rdf:resource="http://purl.org/dc/dcmitype/StillImage" />
      </cc:Work>
    </rdf:RDF>
  </metadata>
  <defs
     id="defs8" />
  <sodipodi:namedview
     pagecolor="#ffffff"
     bordercolor="#666666"
     borderopacity="1"
     objecttolerance="10"
     gridtolerance="10"
     guidetolerance="10"
     inkscape:pageopacity="0"
     inkscape:pageshadow="2"
     inkscape:window-width="2880"
     inkscape:window-height="1551"
     id="namedview6"
     showgrid="false"
     inkscape:zoom="1.3037281"
     inkscape:cx="310.61626"
     inkscape:cy="223.63212"
     inkscape:window-x="1920"
     inkscape:window-y="0"
     inkscape:window-maximized="1"
     inkscape:current-layer="svg4"
     inkscape:document-rotation="0"
     inkscape:snap-bbox="true"
     inkscape:bbox-nodes="true"
     inkscape:bbox-paths="true"
     inkscape:snap-page="true" />
  <rect
     style="opacity:1;fill:#ffffff;stroke:none"
     id="rect832"
     width="512"
     height="512"
     x="0"
     y="0" />
  <g
     id="g837"
     transform="matrix(0.81472547,0,0,0.78637154,47.43028,54.691821)">
    <path
       d="m 12.41,148.02 232.94,105.67 c 6.8,3.09 14.49,3.09 21.29,0 L 499.58,148.02 c 16.55,-7.51 16.55,-32.52 0,-40.03 L 266.65,2.31 a 25.607,25.607 0 0 0 -21.29,0 L 12.41,107.98 c -16.55,7.51 -16.55,32.53 0,40.04 z"
       id="path4524"
       style="fill:#9eabb0" />
    <path
       d="M 499.59,236.3 441.5,209.97 279.86,283.24 c -7.56,3.43 -15.59,5.17 -23.86,5.17 -8.27,0 -16.29,-1.74 -23.86,-5.17 L 70.51,209.97 12.41,236.3 c -16.55,7.5 -16.55,32.5 0,40 l 232.94,105.59 c 6.8,3.08 14.49,3.08 21.29,0 L 499.59,276.3 c 16.55,-7.5 16.55,-32.5 0,-40 z"
       id="path4522"
       style="fill:#009100" />
    <path
       d="m 499.59,364.1 -57.87,-26.23 -161.86,73.37 c -7.56,3.43 -15.59,5.17 -23.86,5.17 -8.27,0 -16.29,-1.74 -23.86,-5.17 L 70.29,337.87 12.41,364.1 c -16.55,7.5 -16.55,32.5 0,40 l 232.94,105.59 c 6.8,3.08 14.49,3.08 21.29,0 L 499.59,404.1 c 16.55,-7.5 16.55,-32.5 0,-40 z"
       id="path2"
       style="fill:#b50000" />
  </g>
</svg>
