<?xml version="1.0" encoding="UTF-8" standalone="no"?>
<svg
   aria-hidden="true"
   focusable="false"
   data-prefix="fas"
   data-icon="layer-group"
   class="svg-inline--fa fa-layer-group fa-w-16"
   role="img"
   viewBox="0 0 512.005 351.60532"
   version="1.1"
   id="svg4"
   sodipodi:docname="logo-color.svg"
   inkscape:export-filename="/home/mx/projects/stm/design/logo/logo-cone/logo-color.png"
   inkscape:export-xdpi="96"
   inkscape:export-ydpi="96"
   inkscape:version="1.1.1 (eb90963e84, 2021-10-02)"
   width="512.005"
   height="351.60532"
   xmlns:inkscape="http://www.inkscape.org/namespaces/inkscape"
   xmlns:sodipodi="http://sodipodi.sourceforge.net/DTD/sodipodi-0.dtd"
   xmlns="http://www.w3.org/2000/svg"
   xmlns:svg="http://www.w3.org/2000/svg"
   xmlns:rdf="http://www.w3.org/1999/02/22-rdf-syntax-ns#"
   xmlns:cc="http://creativecommons.org/ns#"
   xmlns:dc="http://purl.org/dc/elements/1.1/">
  <g
     id="g3270"
     transform="matrix(0.92640045,0,0,0.92640045,18.843967,-131.99464)"
     style="fill:#9eabb0;fill-opacity:1">
    <path
       id="rect3036"
       d="m 196.57143,166.90306 h 118.8563 v 58.67736 h -118.8563 z m 118.85546,0 c -0.19399,-0.0879 -0.38804,-0.17573 -0.58203,-0.26367 -16.06493,-7.28212 -48.19531,-21.84765 -48.19531,-21.84765 -3.40183,-1.54084 -7.02569,-2.31138 -10.65039,-2.31055 v 24.42187 z m -118.85546,0 c 0.19399,-0.0879 0.38804,-0.17573 0.58203,-0.26367 16.06493,-7.28212 48.19531,-21.84765 48.19531,-21.84765 3.40183,-1.54084 7.02569,-2.31138 10.65039,-2.31055 v 24.42187 z m 118.8563,58.67736 c -0.19399,0.0879 -0.38804,0.17573 -0.58203,0.26367 -16.06493,7.28212 -48.19531,21.84765 -48.19531,21.84765 -3.40183,1.54084 -7.02569,2.31138 -10.65039,2.31055 v -24.42187 z m -4.7e-4,-58.67774 20.60351,9.33789 c 16.55,7.5 16.55,32.5 0,40 0,0 -15.91462,7.21448 -20.60351,9.33985 z m -118.85499,58.67774 c 0.19399,0.0879 0.38804,0.17573 0.58203,0.26367 16.06493,7.28212 48.19531,21.84765 48.19531,21.84765 3.40183,1.54084 7.02569,2.31138 10.65039,2.31055 v -24.42187 z m 0,-58.67774 -20.60351,9.33789 c -16.55,7.5 -16.55,32.5 0,40 0,0 15.91462,7.21448 20.60351,9.33985 z"
       style="fill:#9eabb0;fill-opacity:1" />
  </g>
  <metadata
     id="metadata10">
    <rdf:RDF>
      <cc:Work
         rdf:about="">
        <dc:format>image/svg+xml</dc:format>
        <dc:type
           rdf:resource="http://purl.org/dc/dcmitype/StillImage" />
      </cc:Work>
    </rdf:RDF>
  </metadata>
  <defs
     id="defs8" />
  <sodipodi:namedview
     pagecolor="#ffffff"
     bordercolor="#666666"
     borderopacity="1"
     objecttolerance="10"
     gridtolerance="10"
     guidetolerance="10"
     inkscape:pageopacity="0"
     inkscape:pageshadow="2"
     inkscape:window-width="1551"
     inkscape:window-height="773"
     id="namedview6"
     showgrid="false"
     inkscape:zoom="1.3921165"
     inkscape:cx="147.25779"
     inkscape:cy="191.07596"
     inkscape:window-x="2492"
     inkscape:window-y="422"
     inkscape:window-maximized="0"
     inkscape:current-layer="svg4"
     inkscape:pagecheckerboard="0"
     showguides="true"
     inkscape:guide-bbox="true"
     inkscape:snap-bbox="true"
     inkscape:bbox-paths="true"
     inkscape:bbox-nodes="true"
     inkscape:snap-bbox-edge-midpoints="true"
     inkscape:snap-bbox-midpoints="true"
     inkscape:snap-intersection-paths="true"
     inkscape:object-paths="true"
     inkscape:snap-smooth-nodes="true"
     inkscape:snap-global="false" />
  <path
     d="m 499.5925,203.70531 -57.87,-26.23 -161.86,73.37 c -7.56,3.43 -15.59,5.17 -23.86,5.17 -8.27,0 -16.29,-1.74 -23.86,-5.17 l -161.85,-73.37 -57.88,26.23 c -16.55,7.5 -16.55,32.5 0,40 l 232.94,105.59 c 6.8,3.08 14.49,3.08 21.29,0 l 232.95,-105.59 c 16.55,-7.5 16.55,-32.5 0,-40 z"
     id="path826"
     inkscape:original-d="m 499.59,364.1 -57.87,-26.23 -161.86,73.37 c -7.56,3.43 -15.59,5.17 -23.86,5.17 -8.27,0 -16.29,-1.74 -23.86,-5.17 L 70.29,337.87 12.41,364.1 c -16.55,7.5 -16.55,32.5 0,40 l 232.94,105.59 c 6.8,3.08 14.49,3.08 21.29,0 L 499.59,404.1 c 16.55,-7.5 16.55,-32.5 0,-40 z"
     style="fill:#b50000;fill-opacity:1" />
  <path
     id="path2470"
     style="stroke:none;fill:#009100;fill-opacity:1"
     d="m 359.29947,88.835778 58.09961,26.330082 c 16.55,7.5 16.55,32.5 0,40 0,0 -68.16407,30.89709 -102.38281,46.4082 V 108.91 h -0.004 z M 256.0025,225.80648 v -95.79101 c 8.27,0 16.28936,-1.73993 23.85938,-5.16993 l 35.15039,-15.93554 0.41796,-0.18946 v 92.66407 c -0.19399,0.0879 -0.38804,0.17573 -0.58203,0.26367 -16.06493,7.28212 -48.19531,21.84765 -48.19531,21.84765 -3.40183,1.54083 -7.02569,2.31138 -10.65039,2.31055 z M 152.29157,88.646328 94.19196,114.97641 c -16.55,7.5 -16.55,32.5 0,40 0,0 68.16407,30.89709 102.38281,46.4082 v -92.66406 h 0.004 z M 256.0025,225.80648 v -95.79101 c -8.27,0 -16.28936,-1.73993 -23.85938,-5.16993 L 196.99273,108.91 l -0.41796,-0.18946 v 92.66407 c 0.19399,0.0879 0.38804,0.17573 0.58203,0.26367 16.06493,7.28212 48.19531,21.84765 48.19531,21.84765 3.40183,1.54083 7.02569,2.31138 10.65039,2.31055 z" />
</svg>
