<?xml version="1.0" encoding="UTF-8" standalone="no"?>
<svg
   aria-hidden="true"
   focusable="false"
   data-prefix="fas"
   data-icon="comment-slash"
   class="svg-inline--fa fa-comment-slash fa-w-20"
   role="img"
   viewBox="0 0 640 512"
   version="1.1"
   id="svg4"
   sodipodi:docname="anonymous.svg"
   inkscape:version="1.1 (ce6663b3b7, 2021-05-25)"
   xmlns:inkscape="http://www.inkscape.org/namespaces/inkscape"
   xmlns:sodipodi="http://sodipodi.sourceforge.net/DTD/sodipodi-0.dtd"
   xmlns="http://www.w3.org/2000/svg"
   xmlns:svg="http://www.w3.org/2000/svg">
  <defs
     id="defs8" />
  <sodipodi:namedview
     id="namedview6"
     pagecolor="#ffffff"
     bordercolor="#666666"
     borderopacity="1.0"
     inkscape:pageshadow="2"
     inkscape:pageopacity="0.0"
     inkscape:pagecheckerboard="0"
     showgrid="false"
     inkscape:zoom="1.7050781"
     inkscape:cx="319.92669"
     inkscape:cy="256"
     inkscape:window-width="1551"
     inkscape:window-height="1082"
     inkscape:window-x="50"
     inkscape:window-y="50"
     inkscape:window-maximized="0"
     inkscape:current-layer="svg4" />
  <path
     fill="currentColor"
     d="M64 240c0 49.6 21.4 95 57 130.7-12.6 50.3-54.3 95.2-54.8 95.8-2.2 2.3-2.8 5.7-1.5 8.7 1.3 2.9 4.1 4.8 7.3 4.8 66.3 0 116-31.8 140.6-51.4 32.7 12.3 69 19.4 107.4 19.4 27.4 0 53.7-3.6 78.4-10L72.9 186.4c-5.6 17.1-8.9 35-8.9 53.6zm569.8 218.1l-114.4-88.4C554.6 334.1 576 289.2 576 240c0-114.9-114.6-208-256-208-65.1 0-124.2 20.1-169.4 52.7L45.5 3.4C38.5-2 28.5-.8 23 6.2L3.4 31.4c-5.4 7-4.2 17 2.8 22.4l588.4 454.7c7 5.4 17 4.2 22.5-2.8l19.6-25.3c5.4-6.8 4.1-16.9-2.9-22.3z"
     id="path2"
     style="fill:#d7e3f4;opacity:0.4" />
</svg>
